<svg width="24" height="24" viewBox="0 0 25 24" fill="none" xmlns="http://www.w3.org/2000/svg">
              <path fill-rule="evenodd" clip-rule="evenodd" d="M2.88343 2H20.1132C20.5853 2 20.9393 2.35625 21.0573 2.83125V20.1688C21.0573 20.6438 20.7033 21 20.2313 21H2.88343C2.41138 21 2.05734 20.6437 2.05734 20.2875V2.83125C2.05734 2.35625 2.41138 2 2.88343 2ZM4.88962 18.15H7.60391H7.72192V9.125H4.88962V18.15ZM6.30577 7.93749C5.36167 7.93749 4.6536 7.10624 4.6536 6.27499C4.6536 5.32499 5.36167 4.61249 6.30577 4.61249C7.24987 4.61249 7.95795 5.32499 7.95795 6.27499C7.83993 7.10624 7.13186 7.93749 6.30577 7.93749ZM15.2747 18.15H17.989V13.1625C17.989 10.7875 17.5169 8.88751 14.6846 8.88751C13.3865 8.88751 12.4424 9.60001 12.0884 10.3125V9.12501H9.37409V18.2688H12.2064V13.7563C12.2064 12.5688 12.4424 11.3813 13.8586 11.3813C15.2747 11.3813 15.2747 12.6875 15.2747 13.7563V18.15Z" fill="#9CA3AF" />
            </svg>
