<svg width="24" height="24" viewBox="0 0 25 24" fill="none" xmlns="http://www.w3.org/2000/svg">
              <g clip-path="url(#clip0_120_2629)">
                <path d="M23.1397 6.50589C23.0155 6.02674 22.7675 5.58866 22.4206 5.23557C22.0737 4.88248 21.6401 4.62678 21.1632 4.49412C19.3985 4.00001 12.3279 4.00001 12.3279 4.00001C9.37964 3.96457 6.43219 4.12177 3.5044 4.47059C3.02736 4.61295 2.59446 4.87453 2.24659 5.23064C1.89871 5.58675 1.64732 6.02565 1.51616 6.50589C1.19985 8.31994 1.0463 10.1586 1.05734 12C1.04555 13.8414 1.1991 15.6802 1.51616 17.4941C1.64462 17.9731 1.89547 18.4104 2.24405 18.7631C2.59264 19.1158 3.02697 19.3718 3.5044 19.5059C5.29263 20 12.3279 20 12.3279 20C15.2801 20.0355 18.2315 19.8783 21.1632 19.5294C21.6401 19.3968 22.0737 19.1411 22.4206 18.788C22.7675 18.4349 23.0155 17.9968 23.1397 17.5177C23.464 15.7045 23.6216 13.8654 23.6103 12.0235C23.6346 10.1733 23.477 8.32524 23.1397 6.50589ZM10.0809 15.4235V8.57648L15.9632 12L10.0809 15.4235Z" fill="#9CA3AF" />
              </g>
              <defs>
                <clipPath id="clip0_120_2629">
                  <rect width="22.5529" height="16" fill="white" transform="translate(1.05734 4)" />
                </clipPath>
              </defs>
            </svg>
