<svg width="41" height="18" viewBox="0 0 41 18" fill="none" xmlns="http://www.w3.org/2000/svg">
              <path d="M23.8796 6.93061C23.5573 6.60829 23.1543 6.44712 22.6608 6.44712C21.9355 6.44712 21.4118 6.7896 21.0794 7.48462C20.3743 6.64858 19.4073 6.2356 18.1784 6.2356C16.7078 6.2356 15.4688 6.79967 14.4616 7.93789C13.4543 9.07611 12.9607 10.4661 12.9607 12.0979C12.9607 13.7297 13.4644 15.1198 14.4616 16.258C15.4688 17.3962 16.7078 17.9603 18.1784 17.9603C19.4073 17.9603 20.3743 17.5473 21.0794 16.7113C21.4118 17.4063 21.9355 17.7487 22.6608 17.7487C23.1543 17.7487 23.5573 17.5876 23.8796 17.2552C24.2019 16.9329 24.353 16.5299 24.353 16.0565V8.10912C24.3631 7.65585 24.2019 7.25294 23.8796 6.93061ZM20.3642 14.0621C19.9512 14.596 19.3871 14.8579 18.6619 14.8579C17.9367 14.8579 17.3726 14.596 16.9596 14.0621C16.5466 13.5283 16.3452 12.8735 16.3452 12.0879C16.3452 11.3022 16.5466 10.6475 16.9596 10.1136C17.3726 9.57975 17.9367 9.31785 18.6619 9.31785C19.3871 9.31785 19.9512 9.57975 20.3642 10.1136C20.7772 10.6475 20.9786 11.3022 20.9786 12.0879C20.9786 12.8836 20.7671 13.5383 20.3642 14.0621Z" fill="#9CA3AF" />
              <path d="M28.1905 17.5064C27.8682 17.8288 27.4653 18 26.9818 18C26.4882 18 26.0853 17.8388 25.763 17.5064C25.4407 17.1841 25.2896 16.7812 25.2896 16.3078V1.68215C25.2896 1.20873 25.4507 0.815891 25.763 0.483491C26.0853 0.161163 26.4882 0 26.9818 0C27.4754 0 27.8783 0.161163 28.1905 0.483491C28.5129 0.805818 28.664 1.20873 28.664 1.68215V16.3078C28.664 16.7812 28.5028 17.174 28.1905 17.5064Z" fill="#9CA3AF" />
              <path d="M39.3813 7.93789C38.2935 6.79967 36.9135 6.2356 35.2414 6.2356C33.5693 6.2356 32.1995 6.79967 31.1317 7.91774C30.0741 9.03582 29.5403 10.4359 29.5403 12.0979C29.5403 13.7599 30.0741 15.16 31.1317 16.2781C32.1894 17.4063 33.5593 17.9603 35.2414 17.9603C36.9135 17.9603 38.2935 17.3962 39.3813 16.258C40.4188 15.15 40.9426 13.7599 40.9426 12.0979C40.9426 10.4359 40.4289 9.04589 39.3813 7.93789ZM36.9437 14.0621C36.5307 14.596 35.9667 14.8579 35.2414 14.8579C34.5162 14.8579 33.9521 14.596 33.5391 14.0621C33.1261 13.5283 32.9247 12.8735 32.9247 12.0879C32.9247 11.3022 33.1261 10.6475 33.5391 10.1136C33.9521 9.57975 34.5162 9.31785 35.2414 9.31785C35.9667 9.31785 36.5307 9.57975 36.9437 10.1136C37.3567 10.6475 37.5582 11.3022 37.5582 12.0879C37.5682 12.8836 37.3567 13.5383 36.9437 14.0621Z" fill="#9CA3AF" />
              <path d="M11.087 6.62791C12.2857 5.08678 12.8799 4.04929 12.8799 3.51544C12.8799 2.27649 12.1043 1.66205 10.5431 1.66205H2.33378C1.68913 1.66205 1.18549 1.81314 0.832944 2.11532C0.480398 2.4175 0.299088 2.82042 0.299088 3.30391C0.299088 3.7874 0.480398 4.19031 0.832944 4.49249C1.18549 4.79467 1.68913 4.94576 2.33378 4.94576H7.97452L0.762435 14.2731C0.289016 14.8876 0.0573425 15.4214 0.0573425 15.8948C0.0573425 17.2547 0.953817 17.9295 2.74677 17.9295H11.2079C12.5576 17.9295 13.2325 17.3655 13.2325 16.2272C13.2325 15.089 12.5576 14.5249 11.2079 14.5249H4.98291L11.087 6.62791Z" fill="#9CA3AF" />
            </svg>
